<?xml version="1.0" encoding="utf-8"?>
<!-- Generator: Adobe Illustrator 22.0.1, SVG Export Plug-In . SVG Version: 6.00 Build 0)  -->
<svg version="1.1" id="Layer_1" xmlns="http://www.w3.org/2000/svg" xmlns:xlink="http://www.w3.org/1999/xlink" x="0px" y="0px"
	 viewBox="0 0 201.9 139.1" style="enable-background:new 0 0 201.9 139.1;" xml:space="preserve">
<style type="text/css">
	.st0{fill:#FFFFFF;fill-opacity:0;}
	.st1{fill:#231F20;}
</style>
<rect x="-133" y="-80" class="st0" width="470" height="300"/>
<g>
	<g>
		<path class="st1" d="M19.2,66.1l0.1-0.2c0-0.1,0.1-0.3,0-0.5c0-0.2,0-0.3,0-0.3c0.1-0.4,0.7-0.9,1.8-1.5c0.2-0.1,0.3-0.2,0.4-0.2
			c0.1-0.1,0.3-0.2,0.4-0.3c0.2-0.2,0.4-0.2,0.5-0.2l0.1,0.1c0,0,0.1,0,0.3,0s0.3,0,0.4,0.1c0.5,0.2,1.1,0.6,1.8,1.2
			c0.8,0.7,1.4,1.4,2.1,2.2c0.7,1,1.2,2,1.4,3s0.1,2-0.2,3c-1,2.6-2.7,4.4-5.2,5.3c-2.5,0.9-5.3,0.8-8.3-0.3
			c-1.3-0.5-2.7-1.2-4.2-2.2s-3-2.1-4.3-3.4c-0.8-0.7-1.4-1.4-2-2.1c-0.6-0.7-1.1-1.4-1.4-2.1c0-0.1-0.1-0.2-0.2-0.4
			c-0.2-0.3-0.2-0.4-0.2-0.5c0.1-0.5,0.2-1.1,0.3-1.6s0.2-0.8,0.3-1c0.8-2.2,2.1-3.5,3.8-4s4.1-0.2,7,0.9c0.7,0.2,1.3,0.5,1.8,0.8
			c0.1,0.1,0.2,0.1,0.2,0.1c0.3,0.1,0.3,0.9-0.1,2.3c0,0.1-0.1,0.2-0.1,0.3c-0.3,0.8-0.7,1.3-1.3,1.5S13,66.3,12.1,66
			c-1.1-0.4-1.9-0.6-2.4-0.7c-0.5-0.1-0.8,0.1-0.9,0.3c-0.1,0.2,0.1,0.5,0.6,1s1.3,1.2,2.5,2c0.2,0.1,0.4,0.3,0.8,0.5
			c2.2,1.6,4.1,2.6,5.5,3.1s2.5,0.8,3.2,0.7c0.8,0,1.3-0.4,1.5-1c0.3-0.8,0.1-1.7-0.4-2.7C21.7,68.3,20.6,67.3,19.2,66.1z"/>
		<path class="st1" d="M36.4,58.3c-0.4,0.5-1,1-1.7,1.4c-0.8,0.4-1.9,0.9-3.5,1.4c-0.2,0.1-0.5,0.2-0.9,0.3c-1,0.3-1.7,0.5-2,0.5
			c-0.5,0-1.3-0.2-2.2-0.5c-0.9-0.4-1.7-0.8-2.3-1.2l-0.5-0.3c0,0-0.1-0.1-0.2-0.1c-0.5-0.3-0.9-0.6-1.4-1c0,0-0.1-0.1-0.2-0.2
			c-0.1-0.1-0.2-0.1-0.3-0.2l-0.3-0.2c-1.7-1.3-3.5-2.7-5.3-4.3c-1.9-1.6-2.9-2.5-3.2-2.8c-0.3-0.2-0.5-0.4-0.6-0.5
			s-0.2-0.2-0.3-0.6c-0.1-0.3-0.1-0.6,0-0.9c0.1-0.3,0.2-0.6,0.4-0.9c0.4-0.5,1.1-1,2.1-1.5c1.1-0.5,1.8-0.6,2.1-0.4
			c0,0,0.1,0.1,0.2,0.2c0.3,0.4,0.7,0.8,1.2,1.2c1,0.7,2.5,1.9,4.6,3.6s3.6,2.9,4.7,3.7c1.4,1,2.3,1.6,2.7,1.7
			c0.5,0.1,0.9,0,1.2-0.4c0.5-0.7,0.3-1.6-0.7-2.7c-0.9-1.1-3.4-3.2-7.5-6.2l-3.3-2.5c-0.9-0.7-1.8-1.3-2.7-1.8
			C16.4,43,16.3,43,16.3,43c-0.3-0.2-0.4-0.6-0.4-1c0.1-0.5,0.3-0.9,0.6-1.4c0.5-0.7,1.4-1.3,2.5-1.7c1.2-0.4,1.9-0.5,2.2-0.3
			c0,0,0.1,0.1,0.2,0.2c1.2,1.1,2.6,2.3,4.2,3.5c0.2,0.2,0.7,0.5,1.3,0.9c0.6,0.5,1.2,0.8,1.6,1.1c0.5,0.4,1.1,0.9,1.7,1.3
			c0.6,0.5,1,0.7,1,0.8c1.9,1.5,3.3,2.6,3.9,3.5c0.7,0.9,1.2,1.8,1.5,2.9c0.3,1.1,0.5,2.1,0.4,3.1S36.8,57.7,36.4,58.3z"/>
		<path class="st1" d="M35.2,30.2c2,2.6,4,5.1,5.7,7.3c1.8,2.2,3.1,3.8,4,4.9c0.1,0.2,0.3,0.4,0.6,0.7c0.2,0.3,0.4,0.5,0.5,0.6
			c0,0,0.1,0.1,0.1,0.2c0.2,0.3,0.5,0.6,0.7,0.9l0.5,0.6c0.2,0.2,0.3,0.3,0.4,0.4c0.2,0.2,0.2,0.5,0.1,0.8c-0.1,0.3-0.3,0.6-0.5,0.8
			c0,0-0.2,0.1-0.4,0.2c-1,0.3-2,0.7-2.9,1.1c-0.3,0.2-0.6,0.3-0.8,0.2c-0.2,0-0.4-0.1-0.5-0.3c0,0,0-0.1-0.1-0.1
			c-0.2-0.4-0.5-0.7-0.8-1.1c-0.2-0.2-1.1-1.3-2.8-3.2c-1.7-1.9-3.3-3.7-4.8-5.5c-0.5-0.6-1.1-1.3-1.7-2.1c-0.6-0.7-0.9-1.2-1-1.2
			c-0.1-0.1-0.2-0.3-0.4-0.4c-0.1-0.2-0.3-0.3-0.5-0.5c-0.1,0.1-0.3,0.3-0.6,0.4c-0.3,0.2-0.5,0.3-0.6,0.4c0,0,0,0-0.1,0.1
			s-0.1,0.1-0.2,0.2c-0.1,0.1-0.3,0.2-0.5,0.3c-0.2,0.1-0.4,0.3-0.5,0.3c-0.2,0.2-0.3,0.2-0.5,0.2c-0.1,0-0.3-0.2-0.5-0.4
			c0,0-0.2-0.1-0.4-0.3c-0.9-0.6-1.6-1.2-2.1-1.7c-0.2-0.2-0.1-0.5,0.1-0.9c0.2-0.4,0.6-0.9,1.3-1.7c1.1-1.3,2.3-2.6,3.7-3.9
			s2.6-2.5,3.7-3.4c0.2-0.1,0.4-0.1,0.6,0c0.2,0.1,0.3,0.2,0.5,0.2c0.2,0.1,0.4,0.2,0.6,0.3c1.2,0.6,2,1.1,2.4,1.5
			c0.2,0.3,0.2,0.7-0.1,1.3C37.2,27.9,36.4,28.8,35.2,30.2z"/>
		<path class="st1" d="M47.3,37.8c0.3-0.8,0.6-1.3,0.8-1.7c0.2-0.4,0.5-0.6,0.7-0.8c0.4-0.2,0.8-0.3,1.1-0.1
			c0.1,0.1,0.2,0.1,0.2,0.1c0.9,0.5,1.7,0.8,2.4,0.9s1.4,0,2-0.4c0.3-0.2,0.6-0.5,0.7-0.9c0.1-0.4,0-0.8-0.2-1.1
			c-0.4-0.6-1.5-1.1-3.4-1.4c-1-0.2-1.9-0.3-2.5-0.5c-1.5-0.4-2.8-0.9-3.8-1.6s-1.8-1.5-2.4-2.6c-0.7-1.2-1-2.6-1-4.3
			c0-1.7,0.4-3.2,1-4.5c0.3-0.6,0.6-1,0.7-1.2c0.2-0.2,0.3-0.4,0.5-0.5c0.4-0.2,1-0.3,2-0.3c0.9,0,1.6,0,2.1-0.1
			c1.3-0.2,2.5,0,3.5,0.7c1.1,0.6,2,1.7,2.8,3.1c0.5,0.8,0.7,1.5,0.7,2.1s-0.2,1-0.6,1.3c-0.6,0.3-1.3,0.6-2.1,0.8
			c-0.8,0.2-1.4,0.2-1.6,0.1c-0.2-0.1-0.5-0.4-1-1c-0.5-0.5-0.8-1-1-1.2l-0.2-0.3c-0.2-0.3-0.3-0.5-0.5-0.6c-0.1-0.1-0.3-0.1-0.5,0
			s-0.3,0.5-0.3,1.2s0.1,1.3,0.5,1.9c0.7,1.2,2.6,2,5.8,2.5c0.2,0,0.4,0.1,0.5,0.1c1.7,0.2,2.9,0.6,3.8,1.1c0.9,0.5,1.6,1.3,2.2,2.3
			c0.9,1.6,1.2,3.3,0.8,5s-1.4,3.1-2.9,3.9c-1.7,1-3.7,1.3-5.9,0.9C50.1,40.5,48.4,39.5,47.3,37.8z"/>
		<path class="st1" d="M81.5,18.3c1.4,0.3,2.5,0.8,3.3,1.5s1.4,1.7,1.7,3c0.2,0.8,0.1,1.7-0.3,2.7c-0.4,0.9-1,1.8-1.8,2.5
			c-1.2,1.1-2.5,2.1-3.7,2.9s-2.2,1.3-2.9,1.4c-0.7,0.2-1.7,0.1-2.8-0.2c-1.1-0.3-1.8-0.6-2.1-0.9c-0.1-0.1-0.3-0.6-0.6-1.5
			s-0.6-1.8-0.8-2.8l-0.4-1.6c-0.1-0.5-0.3-1.4-0.6-2.7c-0.3-1.3-0.6-2.5-0.8-3.3c-0.5-1.9-0.9-3.9-1.3-6c-0.1-0.5-0.2-0.9-0.2-1
			c-0.2-0.9-0.4-1.7-0.5-2.6c0-0.1,0-0.2,0-0.2l-0.1-0.2c-0.1-0.4,0.5-0.9,1.7-1.5s2.8-1.1,4.8-1.6c1.2-0.3,2.3-0.4,3.3-0.3
			s2,0.5,3,1.1c1.2,0.7,2.1,1.3,2.6,2c0.6,0.6,1,1.4,1.2,2.2c0.3,1.1,0.2,2.2-0.2,3.4C83.4,15.9,82.6,17.1,81.5,18.3z M74.8,16.4
			c0.1,0.3,0.1,0.4,0.2,0.5c0.1,0.1,0.2,0.1,0.4,0c0.8-0.2,1.6-0.9,2.4-2.1c0.8-1.2,1.1-2.3,0.9-3.2c-0.1-0.4-0.4-0.7-0.9-0.9
			s-1.1-0.1-1.9,0.1c-0.7,0.2-1.3,0.4-1.6,0.5c-0.3,0.2-0.4,0.4-0.3,0.8v0.1c0.2,0.8,0.4,1.7,0.5,2.6C74.7,15.8,74.7,16.3,74.8,16.4
			z M76.5,25.7c0.1,0.3,0.2,0.4,0.3,0.5s0.3,0.1,0.6,0c0.8-0.2,1.6-0.7,2.5-1.6s1.2-1.6,1.1-2.2c-0.1-0.5-0.6-0.9-1.5-1.3
			s-1.8-0.5-2.5-0.3c-0.1,0-0.3,0.2-0.5,0.4c0,0.1-0.1,0.1-0.1,0.1c-0.1,0-0.2,0.1-0.3,0.3C76,21.8,76,22,76,22.2
			c0,0.3,0.1,0.8,0.2,1.6C76.2,24.5,76.4,25.2,76.5,25.7z"/>
		<path class="st1" d="M97.4,29.1c-0.3,0-0.7,0-1.2-0.1c-0.4-0.1-0.7-0.2-0.7-0.2c-0.1,0-0.3,0-0.7,0s-0.7-0.1-0.9-0.2
			s-0.3-0.2-0.4-0.2c-0.1-0.1-0.1-0.2-0.1-0.3c0,0,0-0.1,0-0.3c0-0.2,0-0.4,0-0.6c0-0.1-0.1-0.7-0.2-1.8c-0.1-1.1-0.2-2.1-0.3-3
			c0-0.2,0-0.5,0-0.8c0-0.4,0-0.6,0-0.8c0-0.1-0.4-0.8-1.1-2.1c-0.7-1.3-1.4-2.6-2-4c-0.8-2-1.4-3.7-1.9-5.1
			c-0.4-1.4-0.7-2.5-0.7-3.2c0-0.3,0.3-0.7,1-1.2s1.2-0.7,1.7-0.8c1.2-0.1,2.4,1.3,3.7,4.2c0.1,0.3,0.2,0.5,0.3,0.7
			c0.2,0.5,0.5,1.1,0.8,1.7c0.3,0.8,0.6,1.2,0.8,1.2c0.1,0,0.4-0.8,0.7-2.5c0.4-1.6,0.8-3.1,1.2-4.5c0.1-0.4,0.2-0.9,0.4-1.5
			c0.4-1.8,1-2.7,1.7-2.7s1.5,0.1,2.5,0.6c1,0.4,1.5,0.9,1.5,1.3c0,0.5-0.3,2.2-1,5.1s-1.6,6.1-2.6,9.6c0,0.1-0.1,0.3-0.2,0.6
			C99.2,19.5,99,21,99,22.8c0.1,1.8,0.2,3.5,0.2,5.1c0,0.2,0,0.4,0,0.4c0,0.3-0.1,0.5-0.3,0.6C98.5,28.9,98,29,97.4,29.1z"/>
		<path class="st1" d="M124.1,30.2c-0.9-2.7-2-6.6-3.2-11.7c-0.1,0-0.1,0-0.2,0c-0.1,0-0.1,0.1-0.1,0.2c-0.3,2.9-0.6,5.1-0.9,6.5
			c-0.2,1-0.4,2.1-0.5,3.1c0,0.2,0,0.4,0,0.4c-0.1,0.6-0.4,1.1-1,1.3c-0.5,0.3-1.2,0.3-2,0.2c-0.1,0-0.3-0.1-0.9-0.4
			c-0.5-0.3-0.9-0.5-1.2-0.6c-0.2-0.1-0.3-0.3-0.3-0.7c0-0.3,0.1-1,0.3-2.1c0.1-0.6,0.2-1.3,0.3-1.9c0.1-0.7,0.1-1,0.2-1.1
			c0-0.2,0.1-0.7,0.3-1.4c0.1-0.7,0.3-1.2,0.3-1.7c0.1-0.3,0.1-0.7,0.2-1.2c0.1-0.5,0.2-1,0.2-1.2c0.1-0.6,0.3-1.4,0.6-2.5
			s0.5-1.9,0.6-2.5c0.2-1.2,0.5-2.4,0.8-3.7c0.3-1.3,0.5-2,0.5-2.1l0.2-1.1c0.1-0.6,0.3-1,0.7-1.1c0.4-0.2,1-0.2,1.8,0
			c0.2,0,0.6,0.3,1.2,0.6c0.3,0.2,0.6,0.4,0.8,0.5c0.1,0.1,0.3,0.1,0.5,0.2c0.3,0.1,0.4,0.2,0.5,0.3c0.1,0.1,0.2,0.3,0.4,0.4
			c0.2,0.1,0.3,0.3,0.3,0.6c0.2,3,0.4,5.4,0.6,7.4s0.5,3,0.6,3s0.2,0,0.2,0c0.1,0,0.1-0.2,0.1-0.4c0.1-0.7,0.4-2.1,0.7-4.2
			c0.3-2.1,0.6-3.8,0.8-5.2c0.1-0.3,0.1-0.7,0.2-1.1c0.1-0.5,0.2-0.8,0.2-1l0.1-0.6c0-0.2,0.3-0.3,0.8-0.4s1-0.1,1.4-0.1
			c0.1,0,0.2,0.1,0.3,0.1c0.2,0.1,0.3,0.1,0.4,0.1l0.4,0.1c0.3,0,0.7,0.2,1.2,0.6c0.2,0.1,0.3,0.2,0.5,0.3l0,0
			c0.3,0.2,0.4,0.5,0.4,0.8c0,0.1-0.1,0.2-0.1,0.5c-0.2,1.1-0.4,2.2-0.6,3.2c-0.1,0.7-0.3,1.6-0.6,2.7c-0.2,1.2-0.4,2-0.5,2.5
			l-0.3,1.3c-0.1,0.3-0.2,1.2-0.5,2.7s-0.5,2.9-0.8,4.1c-0.2,1.1-0.4,2.2-0.7,3.3c-0.3,1.1-0.4,1.7-0.4,1.8c0,0.2-0.1,0.5-0.1,0.8
			s-0.1,0.4-0.1,0.5c-0.1,0.4-0.2,0.7-0.5,0.8c-0.2,0.1-0.6,0.1-1.2-0.1c-0.1,0-0.4-0.1-1-0.3C125.7,30.8,125,30.6,124.1,30.2z"/>
		<path class="st1" d="M138.9,36.7c-0.4-0.2-0.9-0.5-1.4-1c-0.1-0.1-0.3-0.2-0.3-0.3l-0.2-0.1l-0.3-0.1c-0.4-0.2-0.8-0.4-1.1-0.7
			c-0.3-0.3-0.6-0.6-0.8-1c-1-1.5-1.5-3.3-1.6-5.1c-0.1-1.9,0.4-3.9,1.3-6.1c0.9-2.1,1.8-3.9,3-5.4c1.1-1.6,2.7-3.2,4.7-4.9
			c0.9-0.7,1.6-1.2,2.2-1.4c0.6-0.2,1.3-0.1,1.9,0.2c0.1,0,0.2,0.1,0.4,0.2c0.2,0.1,0.4,0.2,0.5,0.2c0.4,0.2,1.4,0.9,2.8,2.1
			l0.1,0.1c1.5,1.3,2.3,3.1,2.5,5.6c0.1,2.5-0.4,5.2-1.7,8.3c-0.8,1.9-1.9,3.6-3.3,5.3c-1.4,1.7-2.8,2.9-4.3,3.6
			c-0.8,0.4-1.6,0.6-2.4,0.6c-0.1,0-0.2,0-0.2,0c0,0.1-0.2,0.2-0.5,0.1c-0.3,0-0.6-0.1-1.1-0.3L138.9,36.7z M139.8,25.3
			c-0.7,1.7-1.1,3.1-1.2,4.1s0.2,1.7,0.7,1.9c0.6,0.3,1.6-0.4,3-2s2.5-3.3,3.3-5.1l0.2-0.4c0.7-1.7,1.1-3.2,1.2-4.7
			s-0.1-2.3-0.6-2.5c-0.4-0.2-1.3,0.7-2.9,2.5C141.9,21,140.7,23,139.8,25.3z"/>
		<path class="st1" d="M162.6,37.9c-0.1,1.4-0.1,3.1-0.1,5.4c0.1,2.2-0.1,3.6-0.4,4c-0.2,0.3-0.7,0.6-1.6,0.9
			c-0.8,0.3-1.4,0.4-1.6,0.2c-0.4-0.3-0.7-0.8-0.9-1.7c-0.2-0.9-0.5-2.5-0.8-4.9c-0.1-0.8-0.2-1.8-0.3-3c-0.1-1.2-0.2-1.8-0.3-1.9
			c-0.1-0.1-0.2,0-0.3,0c-0.1,0.1-0.3,0.2-0.4,0.5c0,0-0.1,0.1-0.2,0.3c-0.4,0.7-0.8,1.4-1.2,2c-0.1,0.2-0.3,0.5-0.6,1
			c-0.3,0.5-0.5,0.9-0.7,1.1c-0.5,0.7-0.8,1.1-1,1.3c-0.2,0.2-0.4,0.1-0.7,0c-0.2-0.1-0.4-0.2-0.6-0.3c-0.2-0.1-0.3-0.1-0.4-0.2
			s-0.3-0.3-0.6-0.7c-0.3-0.4-0.6-0.9-0.9-1.5c-0.2-0.3-0.3-0.6-0.3-0.8c-0.1-0.2-0.1-0.4-0.1-0.6c0.1-0.3,0.4-1,1-2
			s1.5-2.4,2.8-4.2c0.6-0.9,1.3-1.9,2.2-3.1c0.9-1.2,1.5-2,1.7-2.4c0.3-0.5,0.7-1.1,1.3-1.9c0.5-0.8,0.9-1.4,1.1-1.7
			c0.6-0.9,1.2-1.7,1.8-2.4c0.6-0.7,0.9-1.1,1.1-1.2s0.6,0,1.2,0.2c0.3,0.1,0.4,0.2,0.6,0.2c1.1,0.3,2.1,0.7,3,1.1s1.5,0.7,1.9,1
			c0.6,0.4,1.3,1.1,2.1,2c0.8,0.9,1.3,1.7,1.5,2.3c0.2,0.4,0.3,1,0.4,1.9c0,0.4,0.1,0.6,0.1,0.8c-0.1,1.3-0.3,2.3-0.5,2.9
			c-0.2,0.7-0.5,1.3-1,2c-0.6,0.9-1.5,1.6-2.6,2.1C167.2,37,165.3,37.4,162.6,37.9z M160,31.8c-0.1,0.1-0.1,0.2-0.1,0.3
			c0,0.1,0,0.2,0.1,0.2c0.1,0.1,0.6,0.1,1.4,0.1c0.8-0.1,1.6-0.2,2.6-0.4c1-0.3,1.7-0.5,2-0.7s0.6-0.5,1-1c0.3-0.4,0.4-0.9,0.3-1.5
			s-0.3-1.1-0.7-1.3c-0.6-0.4-1.1-0.7-1.5-0.8c-0.4-0.2-0.7-0.2-0.9-0.1c-0.1,0.1-0.6,0.7-1.5,1.8C161.7,29.5,160.9,30.6,160,31.8z"
			/>
		<path class="st1" d="M164.6,53.9c-0.1-0.1-0.2-0.2-0.3-0.3c-0.1-0.1-0.2-0.2-0.2-0.2c-0.4-0.4-0.7-1.1-1-2s-0.4-1.5-0.4-1.7
			c0.1-0.3,0.3-0.7,0.7-1.1c0.4-0.4,1.3-1.2,2.8-2.5c4.3-3.5,8.3-6.7,12-9.4c0.4-0.3,0.6-0.5,0.7-0.5l0.5-0.4c0.5-0.4,1-0.6,1.5-0.6
			s0.9,0.3,1.3,0.7c0.6,0.7,1.2,1.9,1.9,3.6c0.2,0.4,0.3,0.7,0.4,0.9c0.1,0.2,0,0.5-0.3,0.9c-0.1,0.1-0.2,0.2-0.3,0.3
			c-0.6,0.7-1.3,1.6-2.2,2.7c-2,2.4-2.9,3.7-2.8,3.8c0.2,0.3,2.6-0.9,7.1-3.5l0.1-0.1c0.7-0.3,1.5-0.7,2.3-1.2s1.4-0.5,1.7-0.1
			c0.4,0.5,0.9,1.4,1.4,2.5s0.8,2,0.9,2.7c0,0.3,0,0.6-0.1,0.9c-0.1,0.3-0.3,0.5-0.5,0.7c-0.2,0.1-0.5,0.3-0.9,0.6s-0.8,0.5-1,0.7
			c-0.1,0.1-0.8,0.7-2.2,1.9c-1.4,1.2-2.7,2.4-4,3.4c-2.6,2.1-5.2,4.2-7.9,6.2c-0.5,0.4-0.8,0.6-0.9,0.7c-0.1,0.1-0.3,0.2-0.4,0.4
			c-0.2,0.2-0.3,0.3-0.3,0.3c-0.2,0.2-0.4,0.2-0.6,0.1c-0.2-0.1-0.5-0.4-0.8-0.8c-0.6-0.8-1.1-1.5-1.4-2.3s-0.3-1.3,0-1.5l0.2-0.1
			c0,0,0.1-0.1,0.3-0.2c1.5-1,3.1-2.1,4.7-3.5c2.3-1.9,4.4-3.5,6.4-4.9c0.2-0.2,0.3-0.2,0.4-0.3s0.2-0.2,0.2-0.3s0-0.2,0-0.2
			c-0.1-0.1-1.6,0.6-4.5,2.1s-5.8,3-8.7,4.3c-0.1-0.1-0.1-0.3-0.2-0.5c-0.1-0.3-0.2-0.4-0.3-0.6c0,0,0,0-0.1-0.1l-0.1-0.1
			c-0.1-0.2-0.3-0.5-0.4-0.9c-0.1-0.5-0.2-0.7-0.2-0.8s0.4-0.6,1.1-1.6c0.6-0.8,1.1-1.5,1.5-2c1-1.3,2.1-2.7,3.4-4.1
			c1.2-1.4,1.8-2.1,1.7-2.2c-0.1-0.1-0.2-0.1-0.3-0.1c-0.1,0-0.3,0.2-0.6,0.4c-0.1,0-0.2,0.2-0.5,0.5c-2,1.9-4.1,3.7-6.3,5.5
			c-0.6,0.5-1.3,1.1-1.9,1.6c-0.7,0.6-1,0.9-1,0.9c-0.2,0.1-0.3,0.3-0.5,0.4c-0.2,0.2-0.3,0.3-0.5,0.6L164.6,53.9z"/>
		<path class="st1" d="M181.1,69.4c-0.1-0.2-0.6-0.2-1.6,0.1c-1.1,0.3-2,0.5-2.8,0.6c-0.4,0.1-0.8,0.1-1.2,0.2c-0.6,0.1-1,0-1.1-0.3
			c0-0.1-0.1-0.2-0.2-0.6c-0.1-0.3-0.2-0.6-0.3-0.9c-0.1-0.1,0-0.5,0-1c0.1-0.5,0.2-1.2,0.4-2c0-0.2,0.1-0.3,0.3-0.4
			c0.1-0.1,0.3-0.2,0.6-0.3c0.9-0.3,3.4-0.9,7.6-1.6c4.2-0.7,8.6-1.3,13.3-1.8c0.6-0.1,1.2-0.2,2.1-0.3c1.5-0.2,2.4,0.1,2.7,1
			c0.2,0.6,0.4,1.5,0.5,2.7c0,0.3,0,0.5,0.1,0.6c0,0.2,0.1,0.6,0.2,1.2c0.1,0.6,0.2,1.1,0.2,1.6c0,0.9-0.7,1.7-2.1,2.4
			c-0.4,0.2-0.7,0.4-0.9,0.5c-1.4,0.8-3.1,1.8-5.4,3.1c-2.2,1.3-3.7,2.1-4.5,2.5c-1.6,0.9-3.2,1.8-4.8,2.8c-1.6,1-2.5,1.4-2.6,1.5
			c-0.2,0.1-0.5-0.1-0.9-0.6c-0.4-0.4-0.8-1-1-1.7l-0.2-0.6c-0.4-1-0.2-1.8,0.6-2.3c0.1,0,0.1-0.1,0.2-0.1c1.2-0.8,2-1.4,2.3-1.7
			s0.5-0.5,0.4-0.6c-0.1-0.2-0.2-0.5-0.4-0.8c-0.2-0.4-0.3-0.7-0.4-0.9c-0.2-0.6-0.5-1.1-0.8-1.6c0-0.1-0.1-0.2-0.1-0.2s0-0.1,0-0.2
			C181.1,69.5,181.1,69.5,181.1,69.4z M186.4,68.6c0,0.1,0.1,0.2,0.1,0.3l0,0c0.3,0.8,0.5,1.3,0.6,1.4c0.1,0.1,0.3,0.2,0.7,0
			c0.1,0,0.5-0.3,1.4-0.7c0.8-0.4,1.6-0.8,2.3-1.2c0.6-0.3,1.3-0.6,2-1c0.7-0.3,1-0.5,0.9-0.7c-0.1-0.1-0.3-0.1-0.9,0
			c-0.4,0.1-0.8,0.2-1.1,0.2c-1.8,0.4-3.5,0.7-5.2,0.9c-0.4,0-0.6,0.1-0.6,0.1c-0.1,0.1-0.2,0.1-0.2,0.2S186.3,68.5,186.4,68.6z"/>
	</g>
	<g>
		<path class="st1" d="M76.6,126.8c-0.3-0.9-0.6-1.6-1-2.2c-0.2-0.3-0.4-0.6-0.7-0.8c-0.8-0.9-1.9-1.5-3.1-1.8
			c2.7-3,4.5-6.1,5.6-8.2c0.2-0.3,0.6-1,0.9-1.9c0.3-0.7,1.5-2.3,1.5-2.3l28.3-32.3c0,0-5.2-0.6-11.1,3.8
			c-6,4.5-16.8,19.4-21.1,25.6c0,0-2,2.6-2.3,4.2c-0.7,2.7-2.3,7.9-5.6,11.1c-1.8,0.4-3.7,1.3-5.3,2.8c-3.9,3.6-4.7,9.1-1.8,12.2
			c2.6,2.8,7.2,2.7,11,0.1C74.6,135.2,77.8,131.1,76.6,126.8z M74.8,110.5c-0.2-0.9,0.4-1.7,1.2-1.9c0.9-0.2,1.7,0.4,1.9,1.2
			c0.2,0.9-0.4,1.7-1.2,1.9S75,111.3,74.8,110.5z M62.8,135c-2-2.2-1.5-6,1.3-8.6c2.8-2.6,6.6-2.9,8.7-0.7c2,2.2,1.5,6-1.3,8.6
			C68.8,136.9,64.9,137.2,62.8,135z"/>
		<g>
			<g>
				<path class="st1" d="M80.8,110.4c-0.5,0.7-1.2,1.7-1.3,2l0,0c1.3-0.1,3-0.2,4.8-0.3c1.4-2,3-4.1,4.9-6.3l-5.1,0.8L80.8,110.4z"
					/>
			</g>
			<g>
				<path class="st1" d="M71.9,111.6c0.1-0.3,0.2-0.7,0.3-1c0.2-1,0.8-2.2,1.4-3.1c-2.4-0.2-5.9-0.3-9.6,0.4
					c0.4-1.2,0.4-2.4,0.1-3.6c-0.1-0.3-0.2-0.7-0.4-1c-0.3-0.6-0.7-1.3-1.3-2c-3-3.3-8.2-2.7-11.2-1.3c-4.2,1.8-6.7,5.7-5.7,9.4
					c1.1,4.1,6.2,6.2,11.3,4.8c2.1-0.6,3.9-1.7,5.2-3C65.2,110.3,69,110.9,71.9,111.6z M56.1,112c-3.6,1-7.2-0.5-8-3.4s1.5-6,5.1-7
					s7.2,0.5,8,3.4C62.1,107.9,59.8,111,56.1,112z"/>
			</g>
		</g>
	</g>
	<g>
		<path class="st1" d="M146.7,81.6c-2.1-3.8-6.3-3.7-8.5-7.4c-2.9-4.9-5.5-8.9-11.1-11.6c-3.9-1.9-7.9-3.7-11.9-5.4
			c-0.3-0.1-0.7-0.3-1-0.4c-0.7-0.2-0.9,0.3-0.9,0.6c0,6.3-5.1,11.3-11.3,11.3c-6.3,0-11.3-5.1-11.3-11.3c0-0.2,0-0.4,0-0.6
			c0-0.4-0.4-0.3-0.6-0.2c-2.2,1-4.4,2.4-6.7,3.1c-9.4,2.6-16.7,8.9-19.3,18c-1,3.6-4.3,5.5-6.3,8.6c-3.1,4.8,0.4,6.5,5.2,9.9
			c0.8,0.6,1.7,1.1,2.5,1.8c1.7,1.6,2.8,1.6,4.8-0.2c2.6-2.3,4.7-5.7,9.5-5.9c0.1,2.1,0.3,4.2,0.4,6.2c5.1-6.9,11.7-15.2,16-18.4
			c5-3.7,9.6-4.1,11.3-4.1c0.5,0,0.8,0,0.8,0l2.7,0.3l-1.8,2l-19,21.7c4.8-3.2,10.4-7,22-9.9c-17.3,6.5-29.4,26.5-32.5,32.1
			c-0.5,0.9-0.8,1.4-0.8,1.4c-0.3,2-0.5,3.8-0.7,5.4c0,0.4,0,0.9-0.1,1.3c-0.2,2.3-0.3,4.4-0.2,6.5c13-12,28.5-21.7,45.3-27.6
			c-0.2-3.1-0.4-7.1-0.1-9.5c1-7,1.6-7.4,8-5.6c1.8,0.5,3.4,1.7,5.2,2.6c0.7,0.4,1.5,0.9,2.1,0.9C142.9,97.3,148.8,85.5,146.7,81.6z
			"/>
		<g>
			<path class="st1" d="M93.3,139c6.4,0,17.1,0,23.5-0.1c3.5,0,7-0.1,10.5-0.2c1.3,0,2.2-0.7,1.8-2.1c-2.7-9-5.2-25-5.3-26.7
				c-9.3,3.4-14.6,7.5-19.2,11.1C94.5,128.7,87.8,139,93.3,139z"/>
		</g>
	</g>
</g>
<rect x="78.7" y="107.1" transform="matrix(0.9889 -0.1483 0.1483 0.9889 -15.2365 13.3496)" class="st1" width="6.4" height="3.5"/>
<rect x="78" y="110.4" transform="matrix(0.9976 -6.954063e-02 6.954063e-02 0.9976 -7.5441 5.8992)" class="st1" width="5.9" height="1.8"/>
<rect x="76.6" y="111.9" transform="matrix(0.9976 -6.954063e-02 6.954063e-02 0.9976 -7.6065 5.8035)" class="st1" width="5.9" height="0.5"/>
<rect x="71.8" y="107.6" class="st1" width="2.9" height="3.8"/>
<rect x="73" y="107.5" class="st1" width="2.9" height="1"/>
<rect x="72.7" y="110" transform="matrix(0.2539 -0.9672 0.9672 0.2539 -53.116 153.9703)" class="st1" width="1" height="2.9"/>
</svg>
